<svg width="400" height="400" viewBox="0 0 400 400" xmlns="http://www.w3.org/2000/svg" role="img" aria-label="OCCASION">
  <defs>
    <linearGradient id="bg" x1="0" y1="0" x2="0" y2="1">
      <stop offset="0" stop-color="#5A2545"/><stop offset="1" stop-color="#2E1322"/>
    </linearGradient>
  </defs>
  <rect width="400" height="400" fill="url(#bg)"/>
  <rect x="14" y="14" width="372" height="372" rx="2" fill="none" stroke="#E6C77E" stroke-width="1" opacity="0.5"/>
  <circle cx="200" cy="200" r="150" fill="none" stroke="#E6C77E" stroke-width="0.8" opacity="0.18"/>
  <g fill="#E6C77E">
    <path d="M200 150 l10 32 32 10 -32 10 -10 32 -10 -32 -32 -10 32 -10 z"/>
    <path d="M260 230 l5 16 16 5 -16 5 -5 16 -5 -16 -16 -5 16 -5 z" opacity="0.7"/>
    <path d="M150 235 l4 12 12 4 -12 4 -4 12 -4 -12 -12 -4 12 -4 z" opacity="0.6"/>
  </g>
  <text x="200" y="340" font-family="Jost, sans-serif" font-size="15" letter-spacing="3"
        text-anchor="middle" fill="#FAF3EC">OCCASION</text>
</svg>